<svg width="254" height="254" viewBox="0 0 254 254" fill="none" xmlns="http://www.w3.org/2000/svg">
<path d="M82.0208 206.375H161.396V92.6042H137.583C132.644 92.6042 128.499 93.9712 125.148 96.7052C121.797 99.4392 118.004 103.188 113.771 107.95C109.185 113.065 104.158 117.563 98.6896 121.444C93.2215 125.324 87.6653 127.97 82.0208 129.381V206.375ZM66.1458 222.25V129.117C56.9736 126.647 48.9479 121.973 42.0688 115.094C35.1896 108.215 31.75 99.8361 31.75 89.9583C31.75 80.6097 34.4399 72.3194 39.8198 65.0875C45.1997 57.8556 52.1229 52.8285 60.5896 50.0062C64.6465 41.5396 70.6879 34.6604 78.7135 29.3687C86.7392 24.0771 95.7792 21.4312 105.833 21.4312C112.007 21.4312 117.784 22.4896 123.164 24.6062C128.543 26.7229 133.438 29.5451 137.848 33.0729C139.612 32.7201 141.288 32.4115 142.875 32.1469C144.463 31.8823 146.226 31.75 148.167 31.75C159.808 31.75 169.774 35.8951 178.065 44.1854C186.355 52.4757 190.5 62.4417 190.5 74.0833C190.5 77.9639 189.706 81.8444 188.119 85.725C186.531 89.6056 184.503 92.7806 182.033 95.25H206.375C210.785 95.25 214.533 96.7934 217.62 99.8802C220.707 102.967 222.25 106.715 222.25 111.125V185.208C222.25 189.618 220.707 193.366 217.62 196.453C214.533 199.54 210.785 201.083 206.375 201.083H177.271V222.25H66.1458ZM47.625 89.9583C47.625 96.6611 50.359 102.306 55.8271 106.892C61.2951 111.478 67.3806 113.771 74.0833 113.771C79.7278 113.771 84.8431 112.227 89.4292 109.141C94.0153 106.054 98.6896 101.6 103.452 95.7792C107.509 90.8403 112.36 86.4306 118.004 82.55C123.649 78.6694 130.175 76.7292 137.583 76.7292H174.625C174.625 68.7917 172.288 61.9566 167.614 56.224C162.939 50.4913 156.457 47.625 148.167 47.625C144.992 47.625 141.861 48.1101 138.774 49.0802L134.144 50.5354L129.117 46.3021C125.942 43.4799 122.326 41.275 118.269 39.6875C114.212 38.1 110.067 37.3062 105.833 37.3062C99.6597 37.3062 93.7507 38.8937 88.1063 42.0687C82.4618 45.2437 78.3167 49.6535 75.6708 55.2979L71.9667 63.2354L63.5 66.1458C58.9139 67.7333 55.1215 70.8642 52.1229 75.5385C49.1243 80.2128 47.625 85.0194 47.625 89.9583ZM177.271 185.208H206.375V111.125H177.271V185.208Z" fill="#E7A922"/>
</svg>
