<svg width="368" height="336" viewBox="0 0 368 336" fill="none" xmlns="http://www.w3.org/2000/svg">
<path d="M139.021 206.375H218.396V92.6042H194.583C189.644 92.6042 185.499 93.9712 182.148 96.7052C178.797 99.4392 175.004 103.187 170.771 107.95C166.185 113.065 161.158 117.563 155.69 121.444C150.222 125.324 144.665 127.97 139.021 129.381V206.375ZM123.146 222.25V129.117C113.974 126.647 105.948 121.973 99.0688 115.094C92.1896 108.215 88.75 99.8361 88.75 89.9583C88.75 80.6097 91.4399 72.3194 96.8198 65.0875C102.2 57.8556 109.123 52.8285 117.59 50.0062C121.647 41.5396 127.688 34.6604 135.714 29.3687C143.739 24.0771 152.779 21.4312 162.833 21.4312C169.007 21.4312 174.784 22.4896 180.164 24.6062C185.543 26.7229 190.438 29.5451 194.848 33.0729C196.612 32.7201 198.288 32.4115 199.875 32.1469C201.463 31.8823 203.226 31.75 205.167 31.75C216.808 31.75 226.774 35.8951 235.065 44.1854C243.355 52.4757 247.5 62.4417 247.5 74.0833C247.5 77.9639 246.706 81.8444 245.119 85.725C243.531 89.6056 241.503 92.7806 239.033 95.25H263.375C267.785 95.25 271.533 96.7934 274.62 99.8802C277.707 102.967 279.25 106.715 279.25 111.125V185.208C279.25 189.618 277.707 193.366 274.62 196.453C271.533 199.54 267.785 201.083 263.375 201.083H234.271V222.25H123.146ZM104.625 89.9583C104.625 96.6611 107.359 102.306 112.827 106.892C118.295 111.478 124.381 113.771 131.083 113.771C136.728 113.771 141.843 112.227 146.429 109.141C151.015 106.054 155.69 101.6 160.452 95.7792C164.509 90.8403 169.36 86.4306 175.004 82.55C180.649 78.6694 187.175 76.7292 194.583 76.7292H231.625C231.625 68.7917 229.288 61.9566 224.614 56.224C219.939 50.4913 213.457 47.625 205.167 47.625C201.992 47.625 198.861 48.1101 195.774 49.0802L191.144 50.5354L186.117 46.3021C182.942 43.4799 179.326 41.275 175.269 39.6875C171.212 38.1 167.067 37.3062 162.833 37.3062C156.66 37.3062 150.751 38.8937 145.106 42.0687C139.462 45.2437 135.317 49.6535 132.671 55.2979L128.967 63.2354L120.5 66.1458C115.914 67.7333 112.122 70.8642 109.123 75.5385C106.124 80.2128 104.625 85.0194 104.625 89.9583ZM234.271 185.208H263.375V111.125H234.271V185.208Z" fill="#E7A922"/>
<path d="M32.2 297.712V299H19.596V297.712L22.126 297.39C22.6167 297.329 22.908 297.206 23 297.022C23.092 296.807 23.138 296.179 23.138 295.136V284.004H11.04V295.136C11.04 296.179 11.086 296.807 11.178 297.022C11.27 297.206 11.5613 297.329 12.052 297.39L14.582 297.712V299H1.978V297.712L4.508 297.39C4.99867 297.329 5.29 297.206 5.382 297.022C5.474 296.807 5.52 296.179 5.52 295.136V271.584C5.52 270.541 5.474 269.928 5.382 269.744C5.29 269.529 4.99867 269.391 4.508 269.33L1.978 269.008V267.72H14.582V269.008L12.052 269.33C11.5613 269.391 11.27 269.529 11.178 269.744C11.086 269.928 11.04 270.541 11.04 271.584V282.394H23.138V271.584C23.138 270.541 23.092 269.928 23 269.744C22.908 269.529 22.6167 269.391 22.126 269.33L19.596 269.008V267.72H32.2V269.008L29.67 269.33C29.1793 269.391 28.888 269.529 28.796 269.744C28.704 269.928 28.658 270.541 28.658 271.584V295.136C28.658 296.179 28.704 296.807 28.796 297.022C28.888 297.206 29.1793 297.329 29.67 297.39L32.2 297.712ZM62.6455 286.856V287.776C62.6455 291.303 61.7255 294.139 59.8855 296.286C58.0762 298.402 55.4849 299.46 52.1115 299.46C48.7382 299.46 46.1315 298.402 44.2915 296.286C42.4822 294.139 41.5775 291.303 41.5775 287.776V286.856C41.5775 283.329 42.4822 280.508 44.2915 278.392C46.1315 276.276 48.7382 275.218 52.1115 275.218C55.4849 275.218 58.0762 276.276 59.8855 278.392C61.7255 280.508 62.6455 283.329 62.6455 286.856ZM56.9875 285.936C56.9875 282.655 56.5735 280.324 55.7455 278.944C54.9175 277.533 53.7062 276.828 52.1115 276.828C50.5475 276.828 49.3362 277.533 48.4775 278.944C47.6495 280.324 47.2355 282.655 47.2355 285.936V288.696C47.2355 291.947 47.6495 294.293 48.4775 295.734C49.3362 297.145 50.5475 297.85 52.1115 297.85C53.7062 297.85 54.9175 297.145 55.7455 295.734C56.5735 294.293 56.9875 291.947 56.9875 288.696V285.936ZM97.7076 297.712V299H85.3336V297.712L87.8636 297.39C88.3543 297.329 88.6456 297.206 88.7376 297.022C88.8296 296.807 88.8756 296.179 88.8756 295.136V283.544C88.8756 281.428 88.5843 279.895 88.0016 278.944C87.419 277.963 86.545 277.472 85.3796 277.472C84.889 277.472 84.3063 277.61 83.6316 277.886C82.957 278.131 82.2823 278.591 81.6076 279.266C80.9636 279.941 80.3963 280.937 79.9056 282.256V295.136C79.9056 296.179 79.9516 296.807 80.0436 297.022C80.1356 297.206 80.427 297.329 80.9176 297.39L83.4476 297.712V299H71.0736V297.712L73.6036 297.39C74.0943 297.329 74.3856 297.206 74.4776 297.022C74.5696 296.807 74.6156 296.179 74.6156 295.136V279.542C74.6156 278.499 74.5696 277.886 74.4776 277.702C74.3856 277.487 74.0943 277.349 73.6036 277.288L71.0736 276.966V275.678H79.6296V279.726C80.4883 278.162 81.5923 277.027 82.9416 276.322C84.291 275.586 85.6556 275.218 87.0356 275.218C88.6916 275.218 90.087 275.647 91.2216 276.506C92.387 277.334 93.215 278.53 93.7056 280.094C94.5336 278.377 95.653 277.135 97.0636 276.368C98.4743 275.601 99.885 275.218 101.296 275.218C103.473 275.218 105.206 275.939 106.494 277.38C107.782 278.821 108.426 280.861 108.426 283.498V295.136C108.426 296.179 108.472 296.807 108.564 297.022C108.656 297.206 108.947 297.329 109.438 297.39L111.968 297.712V299H99.5936V297.712L102.124 297.39C102.614 297.329 102.906 297.206 102.998 297.022C103.09 296.807 103.136 296.179 103.136 295.136V283.544C103.136 281.428 102.844 279.895 102.262 278.944C101.679 277.963 100.805 277.472 99.6396 277.472C99.149 277.472 98.5663 277.61 97.8916 277.886C97.217 278.131 96.5423 278.607 95.8676 279.312C95.193 280.017 94.6103 281.045 94.1196 282.394C94.1503 282.547 94.1656 282.731 94.1656 282.946C94.1656 283.13 94.1656 283.314 94.1656 283.498V295.136C94.1656 296.179 94.2116 296.807 94.3036 297.022C94.3956 297.206 94.687 297.329 95.1776 297.39L97.7076 297.712ZM139.271 293.526C138.719 295.673 137.691 297.206 136.189 298.126C134.686 299.015 132.938 299.46 130.945 299.46C127.265 299.46 124.505 298.402 122.665 296.286C120.825 294.139 119.905 291.303 119.905 287.776V286.856C119.905 283.329 120.763 280.508 122.481 278.392C124.229 276.276 126.743 275.218 130.025 275.218C131.865 275.218 133.49 275.586 134.901 276.322C136.342 277.027 137.461 278.055 138.259 279.404C139.087 280.753 139.501 282.394 139.501 284.326C139.501 284.786 139.47 285.277 139.409 285.798C139.378 286.319 139.301 286.841 139.179 287.362H125.563V288.696C125.563 291.947 126.023 294.293 126.943 295.734C127.863 297.145 129.35 297.85 131.405 297.85C132.723 297.85 133.843 297.467 134.763 296.7C135.683 295.903 136.204 294.569 136.327 292.698L139.271 293.526ZM130.025 276.828C128.522 276.828 127.403 277.518 126.667 278.898C125.931 280.278 125.563 282.563 125.563 285.752H133.889C134.011 285.139 134.088 284.571 134.119 284.05C134.18 283.498 134.211 282.992 134.211 282.532C134.211 280.569 133.827 279.128 133.061 278.208C132.294 277.288 131.282 276.828 130.025 276.828ZM164.08 269.008V267.72H176.776C179.229 267.72 181.176 268.057 182.618 268.732C184.059 269.407 185.086 270.296 185.7 271.4C186.344 272.504 186.666 273.731 186.666 275.08V276.322C186.666 277.917 186.16 279.297 185.148 280.462C184.166 281.597 182.725 282.409 180.824 282.9C183.154 283.299 184.933 284.127 186.16 285.384C187.417 286.641 188.046 288.221 188.046 290.122V291.41C188.046 292.79 187.724 294.063 187.08 295.228C186.436 296.363 185.362 297.283 183.86 297.988C182.388 298.663 180.41 299 177.926 299H164.08V297.712L166.61 297.39C167.1 297.329 167.392 297.206 167.484 297.022C167.576 296.807 167.622 296.179 167.622 295.136V271.584C167.622 270.541 167.576 269.928 167.484 269.744C167.392 269.529 167.1 269.391 166.61 269.33L164.08 269.008ZM176.776 269.33H173.142V282.21H176.776C178.094 282.21 179.091 281.765 179.766 280.876C180.44 279.956 180.778 278.515 180.778 276.552V275.08C180.778 273.087 180.44 271.63 179.766 270.71C179.091 269.79 178.094 269.33 176.776 269.33ZM177.926 283.82H173.142V297.39H177.926C179.306 297.39 180.348 296.93 181.054 296.01C181.79 295.059 182.158 293.526 182.158 291.41V289.892C182.158 285.844 180.747 283.82 177.926 283.82ZM196.505 276.966V275.678H205.061V279.45C206.932 276.629 209.155 275.218 211.731 275.218C212.682 275.218 213.602 275.525 214.491 276.138C215.381 276.721 216.117 277.825 216.699 279.45L212.605 281.658C212.176 280.401 211.67 279.557 211.087 279.128C210.535 278.668 209.937 278.438 209.293 278.438C208.619 278.438 207.959 278.653 207.315 279.082C206.671 279.511 206.012 280.309 205.337 281.474V295.136C205.337 296.179 205.383 296.807 205.475 297.022C205.567 297.206 205.859 297.329 206.349 297.39L209.799 297.712V299H196.505V297.712L199.035 297.39C199.526 297.329 199.817 297.206 199.909 297.022C200.001 296.807 200.047 296.179 200.047 295.136V279.542C200.047 278.499 200.001 277.886 199.909 277.702C199.817 277.487 199.526 277.349 199.035 277.288L196.505 276.966ZM242.825 293.526C242.273 295.673 241.246 297.206 239.743 298.126C238.241 299.015 236.493 299.46 234.499 299.46C230.819 299.46 228.059 298.402 226.219 296.286C224.379 294.139 223.459 291.303 223.459 287.776V286.856C223.459 283.329 224.318 280.508 226.035 278.392C227.783 276.276 230.298 275.218 233.579 275.218C235.419 275.218 237.045 275.586 238.455 276.322C239.897 277.027 241.016 278.055 241.813 279.404C242.641 280.753 243.055 282.394 243.055 284.326C243.055 284.786 243.025 285.277 242.963 285.798C242.933 286.319 242.856 286.841 242.733 287.362H229.117V288.696C229.117 291.947 229.577 294.293 230.497 295.734C231.417 297.145 232.905 297.85 234.959 297.85C236.278 297.85 237.397 297.467 238.317 296.7C239.237 295.903 239.759 294.569 239.881 292.698L242.825 293.526ZM233.579 276.828C232.077 276.828 230.957 277.518 230.221 278.898C229.485 280.278 229.117 282.563 229.117 285.752H237.443C237.566 285.139 237.643 284.571 237.673 284.05C237.735 283.498 237.765 282.992 237.765 282.532C237.765 280.569 237.382 279.128 236.615 278.208C235.849 277.288 234.837 276.828 233.579 276.828ZM282.361 279.542L277.347 299H273.161L267.641 280.508L262.075 299H258.257L253.289 279.542C253.105 278.837 252.951 278.346 252.829 278.07C252.737 277.763 252.614 277.564 252.461 277.472C252.307 277.38 252.077 277.319 251.771 277.288L249.241 276.966V275.678H261.477V276.966L258.947 277.288C258.456 277.349 258.18 277.487 258.119 277.702C258.057 277.886 258.165 278.499 258.441 279.542L262.029 293.388L267.319 275.678H271.367L276.841 294.17L280.567 279.542C280.843 278.499 280.95 277.886 280.889 277.702C280.827 277.487 280.551 277.349 280.061 277.288L277.531 276.966V275.678H286.409V276.966L283.879 277.288C283.572 277.319 283.342 277.38 283.189 277.472C283.035 277.564 282.897 277.763 282.775 278.07C282.683 278.346 282.545 278.837 282.361 279.542ZM311.808 293.526C311.256 295.673 310.229 297.206 308.726 298.126C307.223 299.015 305.475 299.46 303.482 299.46C299.802 299.46 297.042 298.402 295.202 296.286C293.362 294.139 292.442 291.303 292.442 287.776V286.856C292.442 283.329 293.301 280.508 295.018 278.392C296.766 276.276 299.281 275.218 302.562 275.218C304.402 275.218 306.027 275.586 307.438 276.322C308.879 277.027 309.999 278.055 310.796 279.404C311.624 280.753 312.038 282.394 312.038 284.326C312.038 284.786 312.007 285.277 311.946 285.798C311.915 286.319 311.839 286.841 311.716 287.362H298.1V288.696C298.1 291.947 298.56 294.293 299.48 295.734C300.4 297.145 301.887 297.85 303.942 297.85C305.261 297.85 306.38 297.467 307.3 296.7C308.22 295.903 308.741 294.569 308.864 292.698L311.808 293.526ZM302.562 276.828C301.059 276.828 299.94 277.518 299.204 278.898C298.468 280.278 298.1 282.563 298.1 285.752H306.426C306.549 285.139 306.625 284.571 306.656 284.05C306.717 283.498 306.748 282.992 306.748 282.532C306.748 280.569 306.365 279.128 305.598 278.208C304.831 277.288 303.819 276.828 302.562 276.828ZM320.41 276.966V275.678H328.966V279.45C330.836 276.629 333.06 275.218 335.636 275.218C336.586 275.218 337.506 275.525 338.396 276.138C339.285 276.721 340.021 277.825 340.604 279.45L336.51 281.658C336.08 280.401 335.574 279.557 334.992 279.128C334.44 278.668 333.842 278.438 333.198 278.438C332.523 278.438 331.864 278.653 331.22 279.082C330.576 279.511 329.916 280.309 329.242 281.474V295.136C329.242 296.179 329.288 296.807 329.38 297.022C329.472 297.206 329.763 297.329 330.254 297.39L333.704 297.712V299H320.41V297.712L322.94 297.39C323.43 297.329 323.722 297.206 323.814 297.022C323.906 296.807 323.952 296.179 323.952 295.136V279.542C323.952 278.499 323.906 277.886 323.814 277.702C323.722 277.487 323.43 277.349 322.94 277.288L320.41 276.966ZM357.146 290.306L353.972 289.57C351.917 289.079 350.384 288.205 349.372 286.948C348.39 285.66 347.9 284.142 347.9 282.394C347.9 281.106 348.176 279.925 348.728 278.852C349.31 277.748 350.215 276.874 351.442 276.23C352.668 275.555 354.263 275.218 356.226 275.218C358.342 275.218 360.059 275.555 361.378 276.23C362.696 276.905 363.632 277.794 364.184 278.898C364.736 280.002 364.904 281.183 364.69 282.44L359.63 283.36C360.059 281.275 359.936 279.665 359.262 278.53C358.618 277.395 357.529 276.828 355.996 276.828C354.922 276.828 354.033 277.15 353.328 277.794C352.622 278.407 352.27 279.297 352.27 280.462C352.27 281.535 352.576 282.486 353.19 283.314C353.803 284.111 354.708 284.648 355.904 284.924L359.078 285.66C361.347 286.181 362.988 287.009 364 288.144C365.012 289.248 365.518 290.628 365.518 292.284C365.518 294.339 364.751 296.056 363.218 297.436C361.715 298.785 359.461 299.46 356.456 299.46C355.413 299.46 354.263 299.307 353.006 299C351.779 298.663 350.644 298.065 349.602 297.206C348.59 296.347 347.854 295.121 347.394 293.526L350.384 292.33C350.598 294.354 351.288 295.78 352.454 296.608C353.65 297.436 354.984 297.85 356.456 297.85C357.836 297.85 358.955 297.543 359.814 296.93C360.703 296.286 361.148 295.366 361.148 294.17C361.148 293.342 360.856 292.591 360.274 291.916C359.722 291.211 358.679 290.674 357.146 290.306Z" fill="white"/>
<rect x="106" y="326" width="156" height="10" fill="#E7A922"/>
</svg>
